<svg id="Capa_1" enable-background="new 0 0 510 510" height="512" viewBox="0 0 510 510" width="512" xmlns="http://www.w3.org/2000/svg" xmlns:xlink="http://www.w3.org/1999/xlink"><linearGradient id="SVGID_1_" gradientUnits="userSpaceOnUse" x1="188.363" x2="343.441" y1="82.983" y2="483.303"><stop offset="0" stop-color="#8a7889"/><stop offset="1" stop-color="#6e566e"/></linearGradient><linearGradient id="SVGID_2_" gradientUnits="userSpaceOnUse" x1="248.7" x2="265.531" y1="154.744" y2="242.506"><stop offset="0" stop-color="#534854"/><stop offset="1" stop-color="#342434"/></linearGradient><linearGradient id="SVGID_3_" gradientUnits="userSpaceOnUse" x1="255" x2="255" y1="371.616" y2="403.925"><stop offset="0" stop-color="#6e566e" stop-opacity="0"/><stop offset=".2191" stop-color="#685168" stop-opacity=".219"/><stop offset="1" stop-color="#564357"/></linearGradient><linearGradient id="SVGID_4_" gradientUnits="userSpaceOnUse" x1="438.521" x2="444.395" y1="350.818" y2="381.448"><stop offset="0" stop-color="#ff7044"/><stop offset="1" stop-color="#f82814"/></linearGradient><linearGradient id="SVGID_5_" gradientUnits="userSpaceOnUse" x1="365.609" x2="371.483" y1="350.818" y2="381.448"><stop offset="0" stop-color="#ffd945"/><stop offset=".3043" stop-color="#ffcd3e"/><stop offset=".8558" stop-color="#ffad2b"/><stop offset="1" stop-color="#ffa325"/></linearGradient><linearGradient id="SVGID_6_" gradientUnits="userSpaceOnUse" x1="77.635" x2="82.03" y1="264.844" y2="287.757"><stop offset="0" stop-color="#f8f6fb"/><stop offset="1" stop-color="#efdcfb"/></linearGradient><g><path d="m489.781 414.068h-469.562c-11.167 0-20.219-9.052-20.219-20.219v-277.698c0-11.167 9.052-20.219 20.219-20.219h469.562c11.167 0 20.219 9.052 20.219 20.219v277.699c0 11.166-9.052 20.218-20.219 20.218z" fill="url(#SVGID_1_)"/><path d="m0 146.974h510v81.236h-510z" fill="url(#SVGID_2_)"/><path d="m0 362.283v31.567c0 11.167 9.052 20.219 20.219 20.219h469.562c11.167 0 20.219-9.052 20.219-20.219v-31.567z" fill="url(#SVGID_3_)"/><circle cx="440.719" cy="362.283" fill="url(#SVGID_4_)" r="30.679"/><circle cx="367.808" cy="362.283" fill="url(#SVGID_5_)" r="30.679"/><g><path d="m112.823 290.265h-67.086c-2.83 0-5.124-2.294-5.124-5.124v-23.442c0-2.83 2.294-5.124 5.124-5.124h67.085c2.83 0 5.124 2.294 5.124 5.124v23.442c.001 2.83-2.294 5.124-5.123 5.124z" fill="url(#SVGID_6_)"/><g fill="#6e566e"><path d="m201.745 326.142h-157.97c-1.746 0-3.162-1.416-3.162-3.162v-14.27c0-1.746 1.416-3.162 3.162-3.162h157.97c1.746 0 3.162 1.416 3.162 3.162v14.271c0 1.745-1.415 3.161-3.162 3.161z"/><path d="m236.165 359.552h-192.39c-1.746 0-3.162-1.416-3.162-3.162v-14.271c0-1.746 1.416-3.162 3.162-3.162h192.39c1.746 0 3.162 1.416 3.162 3.162v14.271c0 1.746-1.416 3.162-3.162 3.162z"/><path d="m166.436 392.961h-122.661c-1.746 0-3.162-1.416-3.162-3.162v-14.27c0-1.746 1.416-3.162 3.162-3.162h122.661c1.746 0 3.162 1.416 3.162 3.162v14.27c0 1.747-1.416 3.162-3.162 3.162z"/></g></g></g></svg>